<?xml version="1.0" standalone="no"?>
<!DOCTYPE svg PUBLIC "-//W3C//DTD SVG 20010904//EN"
 "http://www.w3.org/TR/2001/REC-SVG-20010904/DTD/svg10.dtd">
<svg version="1.0" xmlns="http://www.w3.org/2000/svg"
 width="284.000000pt" height="185.000000pt" viewBox="0 0 284.000000 185.000000"
 preserveAspectRatio="xMidYMid meet">
<metadata>
Created by potrace 1.10, written by Peter Selinger 2001-2011
</metadata>
<g transform="translate(0.000000,185.000000) scale(0.100000,-0.100000)"
fill="#ffffff" stroke="none">
<path d="M612 1529 c-28 -11 -38 -35 -22 -54 10 -12 47 -15 206 -15 181 0 194
1 204 19 14 27 13 29 -12 43 -27 14 -341 21 -376 7z m378 -34 c0 -12 -35 -14
-195 -14 -161 0 -195 2 -195 14 0 12 34 14 195 14 160 0 195 -3 195 -14z"/>
<path d="M1270 1532 c-27 -8 -40 -33 -29 -53 9 -18 25 -19 208 -19 109 0 200
-3 204 -6 3 -4 0 -16 -8 -28 -16 -24 -11 -52 30 -166 30 -82 49 -110 75 -110
37 0 43 26 22 87 -43 124 -58 161 -75 186 -17 26 -17 27 5 32 13 3 63 6 112 8
72 2 91 5 100 19 8 14 7 22 -7 35 -16 16 -45 18 -320 19 -166 1 -309 -1 -317
-4z m635 -37 c0 -6 -117 -11 -327 -12 -278 -2 -328 0 -328 12 0 12 50 14 328
12 210 -1 327 -6 327 -12z m-183 -200 c29 -81 41 -125 33 -125 -7 0 -22 28
-35 63 -12 34 -33 90 -46 125 -17 46 -20 62 -10 62 8 0 32 -52 58 -125z"/>
<path d="M2312 1529 c-28 -11 -38 -35 -22 -54 9 -11 35 -15 105 -15 121 0 131
-4 106 -39 -10 -14 -24 -44 -32 -66 -7 -22 -17 -44 -21 -50 -4 -5 -8 -19 -8
-31 0 -13 -4 -26 -10 -29 -5 -3 -10 -24 -10 -45 0 -31 4 -40 21 -45 31 -10 53
18 84 105 50 139 49 138 35 165 -11 21 -11 27 3 43 24 26 21 39 -10 56 -31 15
-203 19 -241 5z m248 -34 c0 -11 -25 -14 -130 -14 -105 0 -130 3 -130 14 0 11
25 14 130 14 105 0 130 -3 130 -14z m-13 -87 c-2 -7 -21 -60 -42 -118 -21 -58
-42 -109 -46 -114 -22 -24 -16 9 15 95 52 144 55 149 67 149 6 0 9 -6 6 -12z"/>
<path d="M502 1415 c-15 -32 -16 -219 -2 -246 15 -28 49 -24 60 7 6 14 10 67
10 119 0 52 -4 105 -10 119 -12 33 -43 34 -58 1z m38 -120 c0 -77 -4 -125 -10
-125 -6 0 -10 48 -10 125 0 77 4 125 10 125 6 0 10 -48 10 -125z"/>
<path d="M984 1414 c-10 -38 50 -213 84 -247 19 -19 24 -19 47 -7 21 11 29 11
50 0 20 -11 27 -11 40 0 24 20 18 258 -7 274 -13 8 -22 6 -37 -8 -18 -17 -21
-31 -21 -113 0 -60 -4 -92 -10 -88 -5 3 -10 17 -10 31 0 14 -4 23 -8 20 -5 -3
-16 18 -25 47 -9 29 -26 67 -37 85 -24 40 -57 43 -66 6z m82 -119 c40 -109 48
-144 25 -119 -8 8 -91 228 -91 241 0 2 5 3 11 1 7 -2 31 -57 55 -123z m134 0
c0 -104 -2 -125 -15 -125 -13 0 -15 21 -15 125 0 104 2 125 15 125 13 0 15
-21 15 -125z"/>
<path d="M1900 1425 c-12 -14 -8 -33 24 -130 38 -112 58 -145 87 -145 31 0 37
20 24 68 -15 58 -48 149 -66 188 -16 33 -50 42 -69 19z m82 -130 c29 -81 41
-125 33 -125 -7 0 -22 28 -35 63 -12 34 -33 90 -46 125 -17 46 -20 62 -10 62
8 0 32 -52 58 -125z"/>
<path d="M2242 1428 c-13 -17 -79 -179 -87 -217 -4 -20 -1 -34 10 -45 39 -39
61 -13 110 131 32 93 36 114 25 127 -15 19 -44 21 -58 4z m12 -105 c-20 -54
-41 -110 -46 -125 -5 -16 -16 -28 -23 -28 -8 0 3 42 34 125 25 69 51 125 58
125 8 0 0 -33 -23 -97z"/>
<path d="M1493 1212 c-99 -2 -114 -5 -123 -22 -19 -35 12 -50 105 -50 46 0 87
-5 90 -10 3 -6 -3 -22 -14 -36 -18 -23 -21 -41 -21 -120 0 -92 -8 -116 -33
-96 -7 5 -23 8 -37 7 -14 -2 -37 -4 -52 -4 -36 -1 -54 -33 -31 -56 13 -13 28
-15 77 -11 34 4 78 7 99 9 58 3 67 23 67 143 0 87 -3 105 -21 128 -23 29 -18
46 15 46 24 0 46 17 46 37 0 27 -53 38 -167 35z m147 -37 c0 -12 -24 -14 -130
-14 -106 0 -130 2 -130 14 0 12 24 14 130 14 106 0 130 -2 130 -14z m-50 -210
c0 -104 -2 -125 -15 -125 -13 0 -15 21 -15 125 0 104 2 125 15 125 13 0 15
-21 15 -125z m-80 -120 c0 -12 -14 -15 -65 -15 -51 0 -65 3 -65 15 0 12 14 15
65 15 51 0 65 -3 65 -15z"/>
<path d="M885 1104 c-18 -19 -18 -32 0 -64 19 -33 19 -120 0 -144 -21 -28 -19
-53 6 -67 46 -24 97 48 98 141 2 87 -65 173 -104 134z m61 -59 c28 -68 10
-171 -35 -195 -26 -13 -30 6 -5 24 37 28 37 164 0 192 -9 6 -16 16 -16 23 0
23 41 -10 56 -44z"/>
<path d="M1776 1101 c-23 -26 -22 -38 15 -126 4 -11 16 -43 25 -72 18 -57 43
-87 70 -81 32 6 32 48 -2 139 -55 148 -76 175 -108 140z m76 -136 c29 -81 41
-125 33 -125 -7 0 -22 28 -35 63 -12 34 -33 90 -46 125 -17 46 -20 62 -10 62
8 0 32 -52 58 -125z"/>
<path d="M500 1084 c-6 -14 -10 -74 -10 -133 0 -92 3 -110 18 -124 16 -15 21
-15 37 -3 17 12 20 30 23 120 5 117 -7 166 -39 166 -12 0 -23 -11 -29 -26z
m40 -119 c0 -77 -4 -125 -10 -125 -6 0 -10 48 -10 125 0 77 4 125 10 125 6 0
10 -48 10 -125z"/>
<path d="M760 1091 c-5 -11 -10 -68 -10 -126 0 -58 5 -115 10 -126 12 -22 42
-25 58 -6 16 19 18 243 2 262 -17 21 -47 19 -60 -4z m45 -126 c0 -93 -3 -125
-12 -125 -10 0 -13 32 -13 125 0 93 3 125 13 125 9 0 12 -32 12 -125z"/>
<path d="M1156 1088 c-12 -17 -16 -48 -16 -124 0 -88 3 -105 21 -128 20 -26
22 -26 40 -10 17 15 19 32 19 139 0 120 -6 145 -36 145 -7 0 -20 -10 -28 -22z
m44 -123 c0 -104 -2 -125 -15 -125 -13 0 -15 21 -15 125 0 104 2 125 15 125
13 0 15 -21 15 -125z"/>
<path d="M2350 1048 c-17 -34 -30 -69 -30 -78 0 -9 -3 -20 -7 -24 -4 -4 -13
-26 -20 -49 -11 -38 -11 -44 7 -62 38 -37 67 3 120 162 24 75 25 99 4 107 -33
13 -45 4 -74 -56z m67 30 c-2 -7 -21 -60 -42 -118 -21 -58 -42 -109 -46 -114
-22 -24 -16 9 15 95 52 144 55 149 67 149 6 0 9 -6 6 -12z"/>
<path d="M2032 1068 c-7 -7 -12 -22 -12 -35 0 -44 33 -143 55 -163 l22 -21 30
25 c24 20 31 37 42 101 13 69 12 78 -2 93 -14 13 -20 14 -40 3 -18 -10 -30
-10 -45 -2 -26 14 -35 14 -50 -1z m48 -68 c7 -33 16 -63 20 -65 4 -3 13 22 20
56 12 54 24 78 35 67 3 -2 -6 -42 -18 -89 -29 -104 -45 -108 -67 -19 -9 36
-20 75 -24 88 -5 16 -3 22 7 22 9 0 19 -21 27 -60z"/>
<path d="M1170 785 c-15 -18 -34 -19 -60 -3 -16 10 -23 9 -45 -12 -14 -13 -25
-30 -25 -37 0 -8 -9 -33 -20 -55 -11 -23 -20 -49 -20 -57 0 -9 -7 -25 -16 -36
-14 -19 -28 -20 -201 -23 -118 -1 -191 -6 -200 -13 -11 -9 -13 6 -13 89 0 113
-10 152 -39 152 -36 0 -51 -42 -51 -146 0 -87 -2 -96 -18 -89 -9 3 -69 6 -132
6 -88 -1 -118 -4 -129 -16 -12 -12 -13 -20 -5 -33 9 -14 30 -17 133 -20 94 -2
126 1 143 12 16 12 24 12 39 3 15 -9 24 -9 40 1 18 11 24 11 38 -2 10 -9 26
-16 35 -16 15 0 17 -5 10 -22 -4 -13 -9 -72 -11 -131 l-4 -108 -32 7 c-51 13
-360 8 -385 -5 -22 -12 -22 -12 -22 97 0 93 -3 111 -18 125 -25 23 -39 21 -57
-7 -24 -36 -20 -213 5 -246 16 -22 21 -23 45 -12 23 11 30 10 45 -3 26 -23
375 -22 402 2 14 13 21 14 30 5 18 -18 46 -14 58 7 14 28 13 244 -2 259 -24
24 10 31 162 33 85 0 163 5 172 10 21 11 50 66 68 126 7 23 17 40 21 37 5 -3
9 6 9 20 0 14 5 28 10 31 6 4 10 -26 10 -83 0 -73 4 -94 19 -113 16 -20 22
-22 44 -12 20 10 28 9 37 -3 19 -22 386 -21 411 2 14 13 20 13 38 2 18 -11 23
-10 38 5 14 14 19 38 21 120 5 145 -15 185 -67 136 -20 -19 -22 -29 -20 -115
1 -52 -1 -97 -4 -101 -3 -3 -14 -2 -24 2 -16 6 -338 8 -388 2 -19 -2 -20 5
-23 104 -2 88 -6 109 -21 123 -16 15 -19 15 -31 1z m-630 -140 c0 -77 -4 -125
-10 -125 -6 0 -10 48 -10 125 0 77 4 125 10 125 6 0 10 -48 10 -125z m567 113
c-2 -7 -21 -60 -42 -118 -21 -58 -42 -109 -46 -114 -22 -24 -16 9 15 95 52
144 55 149 67 149 6 0 9 -6 6 -12z m93 -113 c0 -104 -2 -125 -15 -125 -13 0
-15 21 -15 125 0 104 2 125 15 125 13 0 15 -21 15 -125z m520 0 c0 -77 -4
-125 -10 -125 -6 0 -10 48 -10 125 0 77 4 125 10 125 6 0 10 -48 10 -125z
m-1257 -120 c1 -6 -44 -11 -118 -12 -125 -3 -150 0 -140 17 8 13 254 8 258 -5z
m527 0 c0 -11 -35 -14 -195 -14 -161 0 -195 2 -195 14 0 12 34 14 195 14 160
0 195 -2 195 -14z m650 0 c0 -12 -34 -14 -195 -14 -162 0 -195 2 -195 14 0 12
33 14 195 14 161 0 195 -2 195 -14z m-1490 -200 c0 -104 -2 -125 -15 -125 -13
0 -15 21 -15 125 0 104 2 125 15 125 13 0 15 -21 15 -125z m522 0 c2 -95 0
-125 -9 -125 -10 0 -13 32 -13 125 0 72 4 125 9 125 6 0 11 -56 13 -125z m-79
-120 c2 -10 -355 -19 -381 -10 -7 3 -11 9 -7 15 8 13 384 8 388 -5z"/>
<path d="M2252 783 c-19 -17 -72 -132 -72 -158 0 -7 -9 -24 -20 -38 -21 -26
-20 -26 -106 -18 -11 1 -25 29 -65 136 -27 72 -36 85 -59 85 -37 0 -44 -26
-25 -93 10 -34 21 -66 25 -72 3 -5 12 -29 20 -52 22 -70 37 -78 151 -78 123 0
124 1 174 154 37 112 37 113 18 133 -19 18 -20 18 -41 1z m-270 -138 c29 -81
41 -125 33 -125 -7 0 -22 28 -35 63 -12 34 -33 90 -46 125 -17 46 -20 62 -10
62 8 0 32 -52 58 -125z m272 28 c-20 -54 -40 -110 -46 -124 -10 -30 -39 -39
-119 -39 -38 0 -49 3 -49 16 0 14 11 16 70 12 l69 -4 43 118 c23 65 48 118 55
118 8 0 1 -32 -23 -97z"/>
</g>
</svg>
